<svg width="61" height="28" viewBox="0 0 61 28" fill="none" xmlns="http://www.w3.org/2000/svg"><path fill-rule="evenodd" clip-rule="evenodd" d="M27.9973 13.5551C27.7667 6.17701 21.8279 0.23816 14.4498 0.00756769V0H14.0047H13.5595V0.00756769C6.18147 0.23816 0.242611 6.17701 0.0120193 13.5551H0V14.4454H0.0120193C0.0600963 15.9879 0.357462 17.4676 0.865833 18.8458L0.853813 18.8507L1.19391 19.6733L1.20104 19.6702C3.32043 24.449 8.03644 27.8197 13.5595 27.9924V28H14.0033H14.0047H14.006H14.4498V27.9924C21.8279 27.7618 27.7667 21.8234 27.9973 14.4449H28.0049V13.5546H27.9973V13.5551ZM23.9847 13.5551C23.9272 12.5205 23.7122 11.5278 23.3637 10.6006L26.2528 9.31671C26.7718 10.6718 27.058 12.0936 27.1066 13.5551H23.9847ZM18.2386 23.1749C19.1863 22.7311 20.0526 22.1431 20.8098 21.4393L22.9519 23.5814C21.855 24.607 20.6059 25.4279 19.2313 26.0262L18.2386 23.1749ZM8.34671 25.8299C7.14034 25.2525 6.03679 24.4975 5.05521 23.5791L7.19732 21.437C7.88241 22.0745 8.65699 22.6171 9.50056 23.0436L8.34671 25.8299ZM9.58158 5.15226C8.75715 5.55958 7.99682 6.0773 7.32018 6.68627L5.05521 4.42131C6.03679 3.50295 7.14034 2.74796 8.34671 2.17059L9.58158 5.15226ZM19.1966 1.95914C20.585 2.55832 21.8461 3.38454 22.9519 4.41908L20.6869 6.68405C19.8857 5.96334 18.9677 5.37083 17.9644 4.93769L19.1966 1.95914ZM21.3217 7.30861L23.5818 5.04854C24.5402 6.0724 25.3201 7.22892 25.9064 8.49673L23.0138 9.7819C22.5753 8.87245 22.0024 8.03956 21.3217 7.30861ZM17.549 5.72785C18.4701 6.11736 19.311 6.65066 20.0566 7.31484L18.2283 9.1431C17.2027 8.25101 15.8917 7.67809 14.4503 7.57971V5.02316C15.5227 5.07436 16.563 5.31074 17.549 5.7274V5.72785ZM17.9274 17.9247C16.8795 18.9726 15.4866 19.5496 14.0047 19.5496C12.5227 19.5496 11.1298 18.9726 10.0819 17.9247C9.03404 16.8768 8.45711 15.4839 8.45711 14.002C8.45711 12.5201 9.03404 11.1272 10.0819 10.0793C11.1298 9.03137 12.5227 8.45444 14.0047 8.45444C15.4866 8.45444 16.8795 9.03137 17.9274 10.0793C18.9753 11.1272 19.5522 12.5201 19.5522 14.002C19.5522 15.4839 18.9753 16.8768 17.9274 17.9247ZM13.5595 7.57971C12.1172 7.67809 10.8053 8.25145 9.77923 9.14488L7.95097 7.31662C8.69661 6.65111 9.53885 6.11736 10.4608 5.7274C11.4468 5.31029 12.4871 5.07391 13.5595 5.02316V7.57971ZM7.58238 13.5551C7.68119 12.1124 8.25537 10.8006 9.14913 9.77458L7.31528 7.94073C6.59724 8.71664 6.02566 9.60072 5.61389 10.5743C5.21191 11.5238 4.97865 12.5245 4.91633 13.5551H7.58238ZM7.58238 14.4454C7.68076 15.8886 8.25412 17.2009 9.148 18.2274L7.20355 20.1719C6.53804 19.4263 6.00429 18.584 5.61433 17.6621C5.18209 16.64 4.94437 15.5592 4.90564 14.4454H7.58238ZM7.82721 20.8071L9.77745 18.8569C10.804 19.7512 12.1163 20.3255 13.5595 20.4239V23.2128C12.4871 23.1616 11.4468 22.9252 10.4608 22.5085C9.48721 22.0968 8.60312 21.5252 7.82721 20.8071ZM14.4498 20.4239C15.8921 20.3255 17.2036 19.7521 18.2297 18.8591L20.1799 20.8094C19.4044 21.5261 18.5212 22.0972 17.5486 22.5085C16.5626 22.9256 15.5218 23.162 14.4498 23.2128V20.4239ZM18.8596 18.2297C19.7548 17.2027 20.329 15.8895 20.427 14.4454H23.1041C23.065 15.5592 22.8277 16.64 22.3955 17.6621C22.0051 18.5849 21.4704 19.4276 20.8045 20.1741L18.86 18.2297H18.8596ZM20.427 13.5551C20.3281 12.1114 19.7534 10.7986 18.8582 9.77211L20.6918 7.9385C21.4108 8.71486 21.9832 9.59983 22.3955 10.5743C22.7974 11.5243 23.0307 12.5245 23.093 13.5551H20.427ZM17.1315 4.62163L18.3671 1.63456C17.1091 1.18989 15.7964 0.943288 14.4498 0.898774V4.1324C15.3829 4.17336 16.2821 4.34207 17.1315 4.62163ZM13.5595 4.1324C12.4484 4.18092 11.3845 4.41107 10.3967 4.79346L9.16269 1.81357C10.5654 1.25535 12.0411 0.948632 13.5595 0.898329V4.1324ZM1.7103 9.43958L4.59848 10.6388L4.93992 9.81663L2.04817 8.61559C2.64023 7.30193 3.4384 6.10579 4.42621 5.05076L6.68627 7.31083C5.14469 8.96727 4.15911 11.1472 4.02512 13.5551H0.903226C0.949967 12.1377 1.22062 10.7577 1.7103 9.43958ZM1.68982 18.5052C1.21311 17.2042 0.950023 15.843 0.903686 14.4454H4.01488C4.04738 15.4514 4.22767 16.4197 4.53616 17.3291L1.68982 18.5052ZM4.85979 18.1589C5.29026 19.1316 5.87074 20.0228 6.57276 20.8027L4.42576 22.9497C3.4246 21.88 2.61842 20.6651 2.02413 19.3305L4.85979 18.1589ZM9.16269 26.1869L10.3125 23.41C11.3239 23.8124 12.4168 24.0537 13.5595 24.104V27.1021C12.0411 27.0518 10.5654 26.7451 9.16269 26.1869ZM14.4498 24.104C15.487 24.0586 16.4833 23.8551 17.415 23.5173L18.4028 26.3538C17.1341 26.8061 15.8093 27.0572 14.4498 27.1021V24.104ZM26.2447 18.7042L23.43 17.5366L23.089 18.3588L25.8971 19.5233C25.3117 20.7831 24.5349 21.9329 23.5818 22.9515L21.4348 20.8045C22.9621 19.1089 23.9166 16.8875 23.9954 14.4449H27.107C27.0585 15.9135 26.7696 17.3425 26.2456 18.7038L26.2447 18.7042ZM39.3266 17.2521H37.89L35.6812 10.9268H37.0331L37.7093 12.967C38.0232 13.8845 38.361 14.9586 38.6388 15.8761C38.9011 14.9706 39.2454 13.9241 39.5445 13.0149L39.5563 12.979L40.2565 10.9268H41.5484L39.327 17.2521H39.3266ZM42.679 15.3566L41.8341 16.0328L41.835 16.0332C42.6679 16.9627 43.6094 17.3972 44.7561 17.3972C46.1446 17.3972 47.2188 16.5884 47.2188 15.321C47.2188 14.379 46.6997 13.7999 45.2992 13.5101L44.4058 13.3169C43.6815 13.1597 43.4158 12.9545 43.4158 12.6046C43.4158 12.1337 43.8863 11.7958 44.5625 11.7958C45.1661 11.7958 45.6852 11.9405 46.2163 12.508L47.0492 11.8804C46.4095 11.1316 45.6246 10.7817 44.5745 10.7817C43.2101 10.7817 42.148 11.5906 42.148 12.7613C42.148 13.6183 42.6915 14.1614 44.0795 14.4512L44.9364 14.6323C45.6126 14.765 45.9625 15.0063 45.9625 15.4772C45.9625 16.0083 45.4555 16.3827 44.7432 16.3827C44.031 16.3827 43.3428 16.0809 42.679 15.3566ZM50.8838 17.3968C49.1577 17.3965 47.9511 16.0082 47.9511 14.0892C47.9511 12.1702 49.1583 10.7817 50.8842 10.7817C52.1275 10.7817 53.1055 11.4094 53.5035 12.7373L52.1996 12.9545C51.9944 12.2303 51.5479 11.7838 50.8838 11.7838C49.8697 11.7838 49.3506 12.7858 49.3506 14.0892C49.3506 15.3927 49.8697 16.3827 50.8838 16.3827C51.6806 16.3827 52.1511 15.8276 52.3928 14.8015L53.5636 14.9827C53.2257 16.5158 52.3203 17.3968 50.8838 17.3968ZM54.3836 14.0892C54.3836 16.0083 55.5904 17.3968 57.3167 17.3968C59.0426 17.3968 60.2379 16.0208 60.2379 14.0892C60.2379 12.1577 59.0426 10.7817 57.3167 10.7817C55.5909 10.7817 54.3836 12.1702 54.3836 14.0892ZM58.8378 14.0892C58.8378 15.3806 58.3188 16.3827 57.3167 16.3827C56.3027 16.3827 55.7836 15.3927 55.7836 14.0892C55.7836 12.7858 56.3147 11.7838 57.3167 11.7838C58.3188 11.7838 58.8378 12.7978 58.8378 14.0892Z" fill="currentColor"></path></svg>